<svg width="300" height="300" viewBox="0 0 300 300" fill="none" xmlns="http://www.w3.org/2000/svg">
<g clip-path="url(#clip0_1_2)">
<mask id="path-1-inside-1_1_2" fill="white">
<path d="M242.365 50.5776C248.45 50.5776 253.443 50.1625 258.316 50.6656C267.982 51.6739 275.522 55.8016 279.522 64.1273C285.04 75.0637 286.159 87.3724 282.686 98.9629C280.222 107.23 274.325 112.922 266.029 116.743C256.109 121.248 245.37 124.132 234.317 125.259C217.224 127.103 200.031 128.23 182.867 129.581C176.577 130.077 170.265 130.351 163.669 130.742C159.819 142.994 161.288 155.249 160.431 168.081C162.884 168.081 164.978 167.967 167.051 168.107C169.809 168.24 172.553 168.549 175.26 169.035C177.652 169.517 178.649 171.172 178.737 173.409C179.2 184.726 179.813 196.039 180.243 207.359C180.652 218.173 180.789 228.998 181.246 239.811C181.635 249.002 182.265 258.186 182.884 267.368C183.064 268.786 182.713 270.217 181.884 271.436C181.057 272.655 179.799 273.591 178.31 274.101C176.814 274.573 175.236 274.804 173.65 274.785C161.556 274.663 149.464 274.482 137.372 274.242C135.589 274.174 133.821 273.916 132.104 273.475C127.141 272.288 124.816 269.748 124.581 265.105C123.358 240.999 122.588 216.891 124.542 192.783C124.958 187.658 125.114 182.501 125.846 177.413C126.557 172.486 130.241 169.585 135.735 169.082C139.051 168.778 142.392 168.681 146.317 168.46C146.71 163.887 147.063 159.514 147.464 155.143C148.207 147.02 148.557 138.843 149.843 130.788C151.425 120.889 156.209 117.354 167.213 116.711C184.816 115.681 202.434 114.823 220.018 113.571C232.089 112.84 244 110.699 255.449 107.203C268.344 103.123 272.736 98.1874 272.839 85.9997C272.883 80.7777 271.415 75.4909 270.158 70.327C268.789 64.7077 264.283 61.6138 258.204 60.4789C253.752 59.649 249.205 59.2338 243.951 58.5253C244.223 61.0263 244.516 63.2534 244.697 65.4878C245.053 69.9069 245.508 74.3271 245.631 78.7535C245.863 87.072 240.279 93.4839 230.047 93.8355C199.954 94.8729 169.906 96.8545 139.812 97.9707C114.269 98.9188 88.6963 99.4093 63.1321 99.622C53.667 99.7008 44.18 98.4809 34.7184 97.6956C32.3569 97.4442 30.0401 96.928 27.8224 96.1594C21.259 94.0432 17.1128 89.791 16.5948 83.6074C15.436 69.7765 15.5067 55.9321 19.435 42.3813C21.7781 34.2963 27.2129 28.8615 37.0778 28.1249C47.3389 27.3583 57.6034 26.3055 67.8831 26.125C100.385 25.5534 132.891 25.0202 165.401 25.099C182.818 25.1415 200.242 26.3158 217.639 27.3138C222.776 27.6914 227.844 28.6063 232.743 30.0398C241.967 32.5958 244.82 37.5088 242.769 45.9113C242.516 47.4566 242.382 49.0158 242.365 50.5776ZM126.853 33.9114L126.841 34.5119C105.44 34.9341 84.0333 35.2255 62.6431 35.8427C53.7562 36.0989 44.8891 36.9923 36.0255 37.7164C32.5491 37.9995 30.053 39.6074 29.4528 42.9031C28.0124 50.8356 29.0508 58.4945 33.6419 65.4499C36.7162 70.1055 39.1832 70.0875 43.3178 66.1757C46.1777 63.4724 48.9531 60.6781 52.0402 58.1884C56.2118 54.8326 60.9467 52.3023 66.7013 51.6934C75.748 50.736 82.4019 54.2941 87.5701 60.5752C90.503 64.1416 93.0639 67.9744 96.224 71.3634C102.092 77.6601 107.543 77.38 113.215 70.9931C116.294 67.5253 119.259 63.8677 122.932 60.9611C126.703 58.15 130.809 55.7193 135.174 53.7123C136.862 52.9194 138.759 52.5552 140.662 52.6598C142.564 52.7644 144.398 53.3336 145.964 54.3055C148.717 56.0044 151.245 57.9757 153.504 60.1821C156.694 63.0867 159.489 66.3409 162.757 69.1656C166.465 72.3731 167.423 72.1241 171.001 68.8399C173.773 66.0776 176.814 63.5428 180.09 61.2671C186.422 57.2484 193.207 56.703 200.105 60.4779C202.273 61.7091 204.549 62.7821 206.908 63.6872C214.952 66.627 221.291 65.0149 225.761 58.3966C228.278 54.3897 230.438 50.2119 232.221 45.9018C233.843 42.3303 233.217 41.3376 229.238 39.9258C227.959 39.4484 226.618 39.1127 225.246 38.9259C216.421 37.8761 207.613 36.3554 198.748 35.9964C174.797 35.0411 150.819 34.5763 126.853 33.9114ZM235.841 61.8627L234.451 61.5512C233.443 62.5886 232.436 63.6259 231.427 64.6632C229.223 67.0764 226.363 68.943 223.123 70.0845C219.882 71.2259 216.369 71.6043 212.918 71.1831C207.431 70.6872 202.742 68.5895 198.118 66.1351C192.39 63.0947 188.616 63.3243 183.553 67.1999C180.857 69.2642 178.546 71.7309 176.082 74.0348C171.404 78.4093 167.087 78.923 161.312 75.646C159.797 74.8097 158.403 73.8083 157.163 72.6647C154.18 69.8296 151.292 66.9092 148.472 63.9434C142.725 57.8988 139.58 57.5183 132.463 62.425C130.29 63.9604 128.285 65.6779 126.476 67.5544C123.336 70.7443 120.422 74.1094 117.364 77.3646C113.134 81.8656 107.967 83.4043 101.447 81.8701C96.0462 80.5868 91.3541 77.584 88.2503 73.425C85.9536 70.5401 83.8828 67.5121 81.52 64.6708C74.996 56.8326 67.8705 55.9423 59.2502 62.1342C55.6342 64.8876 52.2119 67.8387 49.0028 70.9704C42.0964 77.3366 35.9084 77.2007 29.4122 70.4082C28.2534 69.1955 27.1318 67.9558 25.3982 66.0875C25.3982 70.3147 25.3982 73.5046 25.3982 76.6934C25.3982 77.403 25.3854 78.1144 25.4376 78.8208C25.9625 85.9712 27.6139 88.064 35.4578 89.0256C43.8771 90.1187 52.3652 90.7349 60.8714 90.8708C74.9276 90.9911 88.9943 90.5689 103.052 90.2007C117.897 89.8117 132.746 89.4101 147.573 88.6705C171.886 87.4578 196.185 86.0089 220.483 84.5587C225.757 84.2475 231.001 83.5016 235.839 83.0027L235.841 61.8627ZM168.433 262.559C170.469 249.94 170.524 186.385 168.6 178.73L135.358 177.629C135.961 205.723 136.554 233.427 137.153 261.368L168.433 262.559Z"/>
</mask>
<path d="M242.365 50.5776C248.45 50.5776 253.443 50.1625 258.316 50.6656C267.982 51.6739 275.522 55.8016 279.522 64.1273C285.04 75.0637 286.159 87.3724 282.686 98.9629C280.222 107.23 274.325 112.922 266.029 116.743C256.109 121.248 245.37 124.132 234.317 125.259C217.224 127.103 200.031 128.23 182.867 129.581C176.577 130.077 170.265 130.351 163.669 130.742C159.819 142.994 161.288 155.249 160.431 168.081C162.884 168.081 164.978 167.967 167.051 168.107C169.809 168.24 172.553 168.549 175.26 169.035C177.652 169.517 178.649 171.172 178.737 173.409C179.2 184.726 179.813 196.039 180.243 207.359C180.652 218.173 180.789 228.998 181.246 239.811C181.635 249.002 182.265 258.186 182.884 267.368C183.064 268.786 182.713 270.217 181.884 271.436C181.057 272.655 179.799 273.591 178.31 274.101C176.814 274.573 175.236 274.804 173.65 274.785C161.556 274.663 149.464 274.482 137.372 274.242C135.589 274.174 133.821 273.916 132.104 273.475C127.141 272.288 124.816 269.748 124.581 265.105C123.358 240.999 122.588 216.891 124.542 192.783C124.958 187.658 125.114 182.501 125.846 177.413C126.557 172.486 130.241 169.585 135.735 169.082C139.051 168.778 142.392 168.681 146.317 168.46C146.71 163.887 147.063 159.514 147.464 155.143C148.207 147.02 148.557 138.843 149.843 130.788C151.425 120.889 156.209 117.354 167.213 116.711C184.816 115.681 202.434 114.823 220.018 113.571C232.089 112.84 244 110.699 255.449 107.203C268.344 103.123 272.736 98.1874 272.839 85.9997C272.883 80.7777 271.415 75.4909 270.158 70.327C268.789 64.7077 264.283 61.6138 258.204 60.4789C253.752 59.649 249.205 59.2338 243.951 58.5253C244.223 61.0263 244.516 63.2534 244.697 65.4878C245.053 69.9069 245.508 74.3271 245.631 78.7535C245.863 87.072 240.279 93.4839 230.047 93.8355C199.954 94.8729 169.906 96.8545 139.812 97.9707C114.269 98.9188 88.6963 99.4093 63.1321 99.622C53.667 99.7008 44.18 98.4809 34.7184 97.6956C32.3569 97.4442 30.0401 96.928 27.8224 96.1594C21.259 94.0432 17.1128 89.791 16.5948 83.6074C15.436 69.7765 15.5067 55.9321 19.435 42.3813C21.7781 34.2963 27.2129 28.8615 37.0778 28.1249C47.3389 27.3583 57.6034 26.3055 67.8831 26.125C100.385 25.5534 132.891 25.0202 165.401 25.099C182.818 25.1415 200.242 26.3158 217.639 27.3138C222.776 27.6914 227.844 28.6063 232.743 30.0398C241.967 32.5958 244.82 37.5088 242.769 45.9113C242.516 47.4566 242.382 49.0158 242.365 50.5776ZM126.853 33.9114L126.841 34.5119C105.44 34.9341 84.0333 35.2255 62.6431 35.8427C53.7562 36.0989 44.8891 36.9923 36.0255 37.7164C32.5491 37.9995 30.053 39.6074 29.4528 42.9031C28.0124 50.8356 29.0508 58.4945 33.6419 65.4499C36.7162 70.1055 39.1832 70.0875 43.3178 66.1757C46.1777 63.4724 48.9531 60.6781 52.0402 58.1884C56.2118 54.8326 60.9467 52.3023 66.7013 51.6934C75.748 50.736 82.4019 54.2941 87.5701 60.5752C90.503 64.1416 93.0639 67.9744 96.224 71.3634C102.092 77.6601 107.543 77.38 113.215 70.9931C116.294 67.5253 119.259 63.8677 122.932 60.9611C126.703 58.15 130.809 55.7193 135.174 53.7123C136.862 52.9194 138.759 52.5552 140.662 52.6598C142.564 52.7644 144.398 53.3336 145.964 54.3055C148.717 56.0044 151.245 57.9757 153.504 60.1821C156.694 63.0867 159.489 66.3409 162.757 69.1656C166.465 72.3731 167.423 72.1241 171.001 68.8399C173.773 66.0776 176.814 63.5428 180.09 61.2671C186.422 57.2484 193.207 56.703 200.105 60.4779C202.273 61.7091 204.549 62.7821 206.908 63.6872C214.952 66.627 221.291 65.0149 225.761 58.3966C228.278 54.3897 230.438 50.2119 232.221 45.9018C233.843 42.3303 233.217 41.3376 229.238 39.9258C227.959 39.4484 226.618 39.1127 225.246 38.9259C216.421 37.8761 207.613 36.3554 198.748 35.9964C174.797 35.0411 150.819 34.5763 126.853 33.9114ZM235.841 61.8627L234.451 61.5512C233.443 62.5886 232.436 63.6259 231.427 64.6632C229.223 67.0764 226.363 68.943 223.123 70.0845C219.882 71.2259 216.369 71.6043 212.918 71.1831C207.431 70.6872 202.742 68.5895 198.118 66.1351C192.39 63.0947 188.616 63.3243 183.553 67.1999C180.857 69.2642 178.546 71.7309 176.082 74.0348C171.404 78.4093 167.087 78.923 161.312 75.646C159.797 74.8097 158.403 73.8083 157.163 72.6647C154.18 69.8296 151.292 66.9092 148.472 63.9434C142.725 57.8988 139.58 57.5183 132.463 62.425C130.29 63.9604 128.285 65.6779 126.476 67.5544C123.336 70.7443 120.422 74.1094 117.364 77.3646C113.134 81.8656 107.967 83.4043 101.447 81.8701C96.0462 80.5868 91.3541 77.584 88.2503 73.425C85.9536 70.5401 83.8828 67.5121 81.52 64.6708C74.996 56.8326 67.8705 55.9423 59.2502 62.1342C55.6342 64.8876 52.2119 67.8387 49.0028 70.9704C42.0964 77.3366 35.9084 77.2007 29.4122 70.4082C28.2534 69.1955 27.1318 67.9558 25.3982 66.0875C25.3982 70.3147 25.3982 73.5046 25.3982 76.6934C25.3982 77.403 25.3854 78.1144 25.4376 78.8208C25.9625 85.9712 27.6139 88.064 35.4578 89.0256C43.8771 90.1187 52.3652 90.7349 60.8714 90.8708C74.9276 90.9911 88.9943 90.5689 103.052 90.2007C117.897 89.8117 132.746 89.4101 147.573 88.6705C171.886 87.4578 196.185 86.0089 220.483 84.5587C225.757 84.2475 231.001 83.5016 235.839 83.0027L235.841 61.8627ZM168.433 262.559C170.469 249.94 170.524 186.385 168.6 178.73L135.358 177.629C135.961 205.723 136.554 233.427 137.153 261.368L168.433 262.559Z" fill="#2E8555" stroke="#2E8555" stroke-width="2" mask="url(#path-1-inside-1_1_2)"/>
</g>
<defs>
<clipPath id="clip0_1_2">
<rect width="270" height="250" fill="white" transform="translate(15 25)"/>
</clipPath>
</defs>
</svg>
